<?xml version="1.0" encoding="UTF-8" standalone="no"?>
<!-- Created with Inkscape (http://www.inkscape.org/) -->

<svg
   version="1.1"
   id="svg1"
   width="373.18546"
   height="362.56967"
   viewBox="0 0 373.18544 362.56967"
   sodipodi:docname="bear-5.svg"
   inkscape:version="1.3.2 (091e20ef0f, 2023-11-25)"
   xmlns:inkscape="http://www.inkscape.org/namespaces/inkscape"
   xmlns:sodipodi="http://sodipodi.sourceforge.net/DTD/sodipodi-0.dtd"
   xmlns="http://www.w3.org/2000/svg"
   xmlns:svg="http://www.w3.org/2000/svg">
  <defs
     id="defs1" />
  <sodipodi:namedview
     id="namedview1"
     pagecolor="#ffffff"
     bordercolor="#000000"
     borderopacity="0.25"
     inkscape:showpageshadow="2"
     inkscape:pageopacity="0.0"
     inkscape:pagecheckerboard="0"
     inkscape:deskcolor="#d1d1d1"
     inkscape:zoom="1.7744186"
     inkscape:cx="200.6291"
     inkscape:cy="175.55046"
     inkscape:window-width="1920"
     inkscape:window-height="1011"
     inkscape:window-x="0"
     inkscape:window-y="0"
     inkscape:window-maximized="1"
     inkscape:current-layer="g1"
     showgrid="false"
     showguides="true">
    <inkscape:grid
       id="grid6"
       units="px"
       originx="-16.695468"
       originy="-71.592824"
       spacingx="1"
       spacingy="1"
       empcolor="#0099e5"
       empopacity="0.30196078"
       color="#0099e5"
       opacity="0.14901961"
       empspacing="5"
       dotted="false"
       gridanglex="30"
       gridanglez="30"
       visible="false" />
    <sodipodi:guide
       position="168.92871,60.378094"
       orientation="1,0"
       id="guide6"
       inkscape:locked="false" />
    <sodipodi:guide
       position="201.47459,51.149714"
       orientation="0,-1"
       id="guide7"
       inkscape:locked="false" />
    <sodipodi:guide
       position="189.49884,64.111704"
       orientation="0,-1"
       id="guide8"
       inkscape:locked="false" />
  </sodipodi:namedview>
  <g
     inkscape:groupmode="layer"
     inkscape:label="Image"
     id="g1"
     style="display:inline"
     transform="translate(-16.695466,-71.592822)">
    <path
       id="path7"
       style="fill:#572a8f;fill-opacity:1;stroke:none;stroke-width:5.8;stroke-linecap:round;stroke-linejoin:round;stroke-dasharray:none;stroke-opacity:1;paint-order:fill markers stroke"
       inkscape:transform-center-x="-50.861064"
       inkscape:transform-center-y="-4.4437384"
       d="m 208.28951,71.606534 c -4.82861,0.248651 -9.01108,3.451153 -11.64865,7.334958 -4.18673,5.962655 -6.54739,12.925271 -9.07972,19.689884 -2.60415,7.167594 -4.84302,14.511314 -8.32918,21.318694 -0.42684,0.72036 -0.83104,1.56665 -1.54395,2.03126 -2.20263,0.73034 -4.56279,0.71661 -6.85553,0.88496 -0.85697,0.0368 -2.0026,0.071 -2.97012,0.08 -7.83113,0.0807 -15.65801,-0.41479 -23.48985,-0.22975 -5.22389,0.11337 -10.54348,0.4665 -15.51636,2.18871 -3.94862,1.38269 -7.59453,4.22589 -9.05883,8.25019 -1.52483,4.09631 -0.63928,8.77477 1.661,12.40453 2.68339,4.49247 6.67045,7.99155 10.5807,11.38762 7.15263,6.06406 14.97279,11.30321 21.97881,17.54303 1.3956,1.3501 2.96969,2.63357 3.90059,4.36003 4.9e-4,0.99006 -0.18194,1.97716 -0.35156,2.95117 -0.0831,0.43088 -0.25379,1.21809 -0.38672,1.77734 -1.37983,5.5921 -3.41012,10.96719 -5.26541,16.39063 -2.50217,7.2138 -5.13394,14.47176 -6.13989,22.07793 -0.5175,4.40079 -0.17025,9.23846 2.53482,12.92254 2.04071,2.91468 5.38973,4.79549 8.92157,5.12971 4.87538,0.5118 9.60789,-1.36919 13.87129,-3.54103 6.32746,-3.3123 12.16697,-7.45623 18.04345,-11.49242 4.74875,-3.24828 9.48835,-6.57239 14.66503,-9.11431 0.87522,-0.32625 1.85978,-0.90373 2.77929,-0.39062 3.01706,1.37866 5.75252,3.29949 8.45864,5.20155 8.47204,6.06039 16.36603,12.99004 25.48475,18.10082 3.99666,2.18598 8.51958,3.96728 13.15574,3.4872 3.81906,-0.40382 7.44799,-2.57086 9.40316,-5.91048 2.51691,-4.0864 2.59477,-9.1244 2.03472,-13.75027 -0.77072,-6.16415 -2.55161,-12.14103 -4.25186,-18.09805 -1.92796,-6.66518 -4.14946,-13.27649 -5.33564,-20.12764 -0.1395,-1.17363 -0.46153,-2.41673 -0.12138,-3.57501 2.29479,-2.80138 5.29489,-4.9033 8.15527,-7.08193 7.94076,-5.86209 16.44477,-10.99451 23.86055,-17.54458 2.75823,-2.55184 5.44341,-5.32781 7.14433,-8.71724 1.83385,-3.70087 2.2104,-8.29512 0.20872,-12.01054 -1.97418,-3.85905 -5.86703,-6.37104 -9.93639,-7.57043 -6,-1.92714 -12.35777,-2.13114 -18.5985,-2.48153 -7.82409,-0.33674 -15.6837,-0.17509 -23.47355,-1.08171 -1.59642,-0.27418 -3.32532,-0.30859 -4.75692,-1.13313 -1.44944,-1.9406 -2.18493,-4.29396 -3.08593,-6.51563 -0.61824,-1.69731 -1.19149,-3.36223 -1.75843,-5.13165 -2.97831,-9.27637 -5.25413,-18.828274 -9.34812,-27.705901 -2.036,-4.35634 -4.85139,-8.685828 -9.24687,-10.947694 -1.93529,-0.986837 -4.12226,-1.463929 -6.29307,-1.361231 z" />
    <path
       id="path7-3"
       style="display:inline;fill:#ffc300;fill-opacity:1;stroke:#9c20c3;stroke-width:3.69572;stroke-linecap:round;stroke-linejoin:round;stroke-dasharray:none;stroke-opacity:1;paint-order:fill markers stroke"
       inkscape:transform-center-x="-26.845935"
       inkscape:transform-center-y="-2.3456611"
       d="m 341.65952,132.9303 c -2.54856,0.13123 -4.7563,1.82155 -6.14846,3.87154 -2.20985,3.14724 -3.45586,6.82233 -4.79251,10.39275 -1.37455,3.7832 -2.55621,7.65949 -4.39633,11.25261 -0.22533,0.3802 -0.43861,0.82681 -0.81482,1.07215 -1.16276,0.38554 -2.40838,0.37813 -3.61864,0.46704 -0.4523,0.02 -1.0569,0.0374 -1.56769,0.0422 -4.13339,0.0429 -8.26467,-0.21912 -12.39851,-0.12146 -2.75727,0.0595 -5.56519,0.2463 -8.18995,1.15531 -2.08417,0.72993 -4.00861,2.23061 -4.78156,4.35471 -0.80485,2.16224 -0.33739,4.63152 0.87671,6.5475 1.41651,2.3711 3.52091,4.21806 5.58489,6.0106 3.77527,3.20081 7.90288,5.96623 11.60097,9.25975 0.73668,0.71255 1.5674,1.38993 2.05888,2.3013 1.3e-4,0.52253 -0.0962,1.04361 -0.18557,1.55771 -0.0445,0.22733 -0.13405,0.64286 -0.20416,0.93802 -0.72829,2.95174 -1.79992,5.78877 -2.77931,8.65139 -1.32065,3.80761 -2.70983,7.63857 -3.24081,11.65331 -0.27297,2.3228 -0.0899,4.87631 1.33801,6.82082 1.07719,1.53844 2.84489,2.53118 4.70907,2.70765 2.57341,0.27014 5.07122,-0.72276 7.32152,-1.8691 3.33979,-1.74823 6.42201,-3.93551 9.52384,-6.06602 2.5065,-1.71444 5.00825,-3.46896 7.74056,-4.81071 0.46199,-0.17218 0.98161,-0.47707 1.46701,-0.20613 1.5924,0.72766 3.03633,1.74147 4.4647,2.74542 4.47175,3.19893 8.63833,6.85659 13.45145,9.55415 2.10948,1.15375 4.49678,2.09395 6.9439,1.84056 2.01577,-0.21315 3.93123,-1.35692 4.96326,-3.11967 1.32845,-2.15692 1.36952,-4.81611 1.07394,-7.25774 -0.40681,-3.25364 -1.34676,-6.4084 -2.2442,-9.55255 -1.01768,-3.51814 -2.19023,-7.00766 -2.81628,-10.62399 -0.0736,-0.61929 -0.24363,-1.27546 -0.0636,-1.88683 1.21127,-1.4787 2.79483,-2.58824 4.30447,-3.73802 4.19134,-3.09434 8.67993,-5.80322 12.59421,-9.26055 1.45588,-1.3469 2.87324,-2.81217 3.77108,-4.60114 0.96791,-1.95347 1.16655,-4.37846 0.11015,-6.33956 -1.0421,-2.03694 -3.09676,-3.36284 -5.24467,-3.99578 -3.16697,-1.01732 -6.52282,-1.12485 -9.81686,-1.30991 -4.12977,-0.17764 -8.27816,-0.0924 -12.38994,-0.5709 -0.84262,-0.14468 -1.75507,-0.16287 -2.51072,-0.59803 -0.76508,-1.0244 -1.15334,-2.26658 -1.62881,-3.43927 -0.32635,-0.89582 -0.62902,-1.77461 -0.92816,-2.70845 -1.57211,-4.89643 -2.7733,-9.93805 -4.9342,-14.62389 -1.07464,-2.29941 -2.56066,-4.5846 -4.88076,-5.77852 -1.02145,-0.52086 -2.17577,-0.77263 -3.32167,-0.71844 z" />
    <g
       inkscape:groupmode="layer"
       id="layer1"
       inkscape:label="face"
       style="display:inline">
      <path
         id="path6"
         style="fill:#572a8f;fill-opacity:1;stroke:none;stroke-width:5.8;stroke-linecap:round;stroke-linejoin:round;stroke-dasharray:none;stroke-opacity:1;paint-order:fill markers stroke"
         d="m 281.81055,217.82227 c -10.88929,0.14713 -21.68118,5.29504 -28.36481,13.94481 -2.46003,3.13758 -4.38684,6.69138 -5.67816,10.46339 -25.45648,-9.3655 -53.89669,-10.32276 -79.94233,-2.76688 -2.97698,0.8576 -5.91985,1.83189 -8.8272,2.90164 -3.25867,-9.72321 -10.89167,-17.87198 -20.40729,-21.7114 -9.34431,-3.91623 -20.2955,-3.75225 -29.51195,0.4626 -8.47364,3.78377 -15.421237,10.92935 -18.757613,19.611 -3.194634,8.06808 -3.253052,17.33797 -0.03357,25.40889 2.81713,7.22164 8.04285,13.48677 14.673313,17.51016 -10.561024,15.52413 -16.513784,34.31505 -15.946502,53.14266 0.494221,18.15976 6.852522,36.00901 17.505312,50.68169 11.7949,16.38303 28.49232,28.95883 47.04861,36.74401 32.99452,13.91803 71.87356,13.23641 104.27099,-2.07728 17.86763,-8.41062 33.75493,-21.39345 44.65686,-37.94194 9.52923,-14.37428 15.09928,-31.45036 15.27574,-48.73418 0.22196,-15.26471 -3.67416,-30.52581 -10.98844,-43.91236 -1.48336,-2.74585 -3.10825,-5.41403 -4.84601,-8.00611 8.8752,-5.51579 15.24038,-15.03427 16.56063,-25.44091 1.30402,-9.54071 -1.55152,-19.55834 -7.71709,-26.9598 -6.97742,-8.52734 -17.95356,-13.5773 -28.97049,-13.31999 z" />
      <path
         id="path1"
         style="fill:#fca94c;fill-opacity:1;stroke:#aa10b6;stroke-width:5.8;stroke-linecap:round;stroke-linejoin:round;stroke-dasharray:none;stroke-opacity:1;paint-order:fill markers stroke"
         d="m 124.34766,227.81055 a 26.46888,25.679668 0 0 0 -26.468754,25.67968 26.46888,25.679668 0 0 0 23.492184,25.47266 104.42576,89.902962 0 0 0 -22.417965,55.32422 104.42576,89.902962 0 0 0 104.425785,89.90234 104.42576,89.902962 0 0 0 104.42578,-89.90234 104.42576,89.902962 0 0 0 -22.14453,-55.34766 26.46888,25.679668 0 0 0 23.1582,-25.44922 26.46888,25.679668 0 0 0 -26.4707,-25.67968 26.46888,25.679668 0 0 0 -26.46875,25.67968 26.46888,25.679668 0 0 0 0.23632,3.21289 104.42576,89.902962 0 0 0 -52.73632,-12.32031 104.42576,89.902962 0 0 0 -52.81446,12.56055 26.46888,25.679668 0 0 0 0.25391,-3.45313 26.46888,25.679668 0 0 0 -26.4707,-25.67968 z" />
      <path
         id="path2"
         style="fill:#7d3e93;fill-opacity:1;stroke:none;stroke-width:4.99745;stroke-linecap:round;stroke-linejoin:round;paint-order:fill markers stroke"
         d="m 165.6878,306.66286 c 0,6.49715 -4.16247,11.76412 -9.29713,11.76412 -5.1347,10e-6 -9.29717,-5.26696 -9.29717,-11.76412 0,-6.49718 3.39052,-14.00488 8.95753,-14.09836 5.69157,-0.0955 9.63677,7.60121 9.63677,14.09836 z"
         sodipodi:nodetypes="sssas" />
      <path
         id="path9"
         style="fill:#7d3e93;fill-opacity:1;stroke:none;stroke-width:4.99745;stroke-linecap:round;stroke-linejoin:round;paint-order:fill markers stroke"
         d="m 262.85233,306.66286 c 0,6.49715 -4.16247,11.76412 -9.29716,11.76412 -5.13467,10e-6 -9.29714,-5.26696 -9.29714,-11.76412 0,-6.49718 3.39052,-14.00488 8.95753,-14.09836 5.69157,-0.0955 9.63677,7.60121 9.63677,14.09836 z"
         sodipodi:nodetypes="sssas" />
      <ellipse
         style="fill:#ff4397;fill-opacity:1;stroke:none;stroke-width:6.81401;stroke-linecap:round;stroke-linejoin:round;stroke-dasharray:none;stroke-opacity:1;paint-order:fill markers stroke"
         id="path10"
         cx="126.92757"
         cy="257.07257"
         rx="14.224934"
         ry="14.104956" />
      <ellipse
         style="fill:#ff4397;fill-opacity:1;stroke:none;stroke-width:6.81401;stroke-linecap:round;stroke-linejoin:round;stroke-dasharray:none;stroke-opacity:1;paint-order:fill markers stroke"
         id="ellipse10"
         cx="280.92755"
         cy="257.07257"
         rx="14.224934"
         ry="14.104956" />
      <ellipse
         style="fill:#ffffff;fill-opacity:1;stroke:none;stroke-width:1.22166;stroke-linecap:round;stroke-linejoin:round;stroke-dasharray:none;stroke-opacity:1;paint-order:fill markers stroke"
         id="ellipse11"
         cx="154.15315"
         cy="301.12775"
         rx="2.4407041"
         ry="2.6424093" />
      <ellipse
         style="display:inline;fill:#ffffff;fill-opacity:1;stroke:none;stroke-width:1.22166;stroke-linecap:round;stroke-linejoin:round;stroke-dasharray:none;stroke-opacity:1;paint-order:fill markers stroke"
         id="ellipse11-3"
         cx="159.40767"
         cy="309.74255"
         rx="2.4407041"
         ry="2.6424093" />
      <ellipse
         style="fill:#ffffff;fill-opacity:1;stroke:none;stroke-width:1.22166;stroke-linecap:round;stroke-linejoin:round;stroke-dasharray:none;stroke-opacity:1;paint-order:fill markers stroke"
         id="ellipse12"
         cx="250.15315"
         cy="301.12775"
         rx="2.4407041"
         ry="2.6424093" />
      <ellipse
         style="display:inline;fill:#ffffff;fill-opacity:1;stroke:none;stroke-width:1.22166;stroke-linecap:round;stroke-linejoin:round;stroke-dasharray:none;stroke-opacity:1;paint-order:fill markers stroke"
         id="ellipse13"
         cx="255.40767"
         cy="309.74255"
         rx="2.4407041"
         ry="2.6424093" />
    </g>
    <path
       id="path3"
       style="fill:#ff4397;fill-opacity:1;stroke-width:4;stroke-linecap:round;stroke-linejoin:round;paint-order:fill markers stroke"
       d="m 113.50714,352.88076 c 0.58392,6.63658 1.26595,12.4942 -0.34288,12.49419 -1.60882,-1e-5 -4.04071,-5.48888 -4.04071,-12.25974 0,-3.71088 0.48638,-11.44795 2.0952,-11.44796 1.60883,-1e-5 1.69493,4.46869 2.28839,11.21351 z"
       sodipodi:nodetypes="sssss" />
    <ellipse
       style="fill:#ffe6d5;fill-opacity:1;stroke:#742a8f;stroke-width:5.85537;stroke-linecap:round;stroke-linejoin:round;stroke-opacity:1;paint-order:fill markers stroke"
       id="path4"
       cx="203.45518"
       cy="367.36835"
       rx="58.698254"
       ry="42.725262" />
    <path
       id="path5"
       style="color:#000000;fill:#474357;fill-opacity:1;stroke-width:0.963498;stroke-linecap:round;stroke-linejoin:round;-inkscape-stroke:none;paint-order:fill markers stroke"
       d="M 203.51953,357.12038 A 2,1.8566567 0 0 0 201.5,358.95891 l -0.11914,11.64036 -14.97266,9.69125 a 2,1.8566567 0 0 0 -0.49804,2.58553 2,1.8566567 0 0 0 2.78515,0.46055 l 14.46485,-9.36126 14.29882,9.35944 a 2,1.8566567 0 0 0 2.78711,-0.44785 2,1.8566567 0 0 0 -0.48047,-2.58735 L 205.37695,370.88212 205.5,358.99517 a 2,1.8566567 0 0 0 -1.98047,-1.87479 z" />
    <path
       style="fill:#13d5b8;fill-opacity:1;stroke:#474357;stroke-width:3.39326;stroke-linecap:round;stroke-linejoin:round;stroke-opacity:1;paint-order:fill markers stroke"
       d="m 189.43308,344.68835 28.42339,0.34963 c 0,0 -1.88932,12.4534 -13.57801,12.45014 -12.16495,-0.004 -14.23506,-8.82225 -14.84538,-12.79977 z"
       id="path8"
       sodipodi:nodetypes="ccsc" />
    <path
       sodipodi:type="star"
       style="fill:#ff46be;fill-opacity:1;stroke:#aa10b6;stroke-width:5.8;stroke-linecap:round;stroke-linejoin:round;stroke-dasharray:none;stroke-opacity:1;paint-order:fill markers stroke"
       id="path11"
       inkscape:flatsided="false"
       sodipodi:sides="5"
       sodipodi:cx="171.19604"
       sodipodi:cy="154.19884"
       sodipodi:r1="84.514008"
       sodipodi:r2="43.186665"
       sodipodi:arg1="0.823055"
       sodipodi:arg2="1.4513735"
       inkscape:rounded="0.2"
       inkscape:randomized="0"
       d="m 228.66425,216.16676 c -8.1676,7.57452 -41.26306,-20.41597 -52.32298,-19.08885 -11.05993,1.32712 -36.59384,36.35277 -46.32157,30.92558 -9.72772,-5.4272 6.66576,-45.55239 1.98589,-55.66089 -4.67988,-10.10851 -45.881664,-23.56918 -43.726128,-34.4979 2.155536,-10.92871 45.382718,-7.73695 53.550328,-15.31147 8.1676,-7.57453 8.23741,-50.919333 19.29733,-52.246455 11.05992,-1.327122 21.38231,40.770685 31.11004,46.197875 9.72773,5.4272 50.97266,-7.90069 55.65253,2.20782 4.67987,10.1085 -32.16773,32.93462 -34.32326,43.86333 -2.15554,10.92872 23.26542,46.03643 15.09782,53.61096 z"
       transform="rotate(8.2214863,120.35218,408.1494)"
       inkscape:transform-center-x="-50.861064"
       inkscape:transform-center-y="-4.4437384" />
    <path
       id="text1"
       style="font-size:24px;font-family:'Carter One';-inkscape-font-specification:'Carter One';text-align:center;text-anchor:middle;display:inline;fill:#742a8f;fill-opacity:1;stroke:none;stroke-width:3;stroke-linecap:round;stroke-linejoin:round;stroke-dasharray:none;stroke-opacity:1;paint-order:markers stroke fill"
       d="m 191.53365,148.12215 c -3.26427,0.17543 -6.60432,0.91228 -9.38264,2.69226 -1.18264,0.92766 -1.764,2.34554 -2.25755,3.71633 -0.85477,1.69603 -1.2749,3.88711 -0.0922,5.54063 0.19591,0.49003 0.90281,0.73173 0.94306,1.21678 -0.2011,2.56472 -0.52209,5.12818 -0.57978,7.69924 0.0248,2.06351 1.74055,3.77529 3.71858,4.12775 3.23559,0.66192 6.67627,1.28865 9.8906,0.17463 1.70007,-0.51355 3.30823,-1.35008 4.67598,-2.48598 2.89346,2.91285 7.47902,3.85649 11.3324,2.50505 1.05514,-0.28597 2.11747,-0.62051 3.0426,-1.21794 2.12356,1.64357 5.04388,2.28209 7.6289,1.48047 1.58057,0.71859 3.33554,0.12503 4.78711,-0.61328 1.53046,1.21774 3.71597,1.1807 5.41686,0.34976 1.7023,-0.69601 3.81852,-0.97086 4.91743,-2.61297 1.01973,-1.47175 0.76642,-3.34645 1.01155,-5.03208 0.0546,-0.63664 0.10829,-1.27343 0.16588,-1.90979 1.29279,-0.0147 2.58793,-0.49733 3.54633,-1.36455 1.20795,-1.4667 1.19519,-3.49691 1.6607,-5.2624 0.10338,-0.93323 -0.10772,-1.92177 -0.47253,-2.76083 -0.48499,-0.6365 -0.89215,-1.3567 -1.68567,-1.63565 -1.06937,-0.67775 -2.38289,-0.70866 -3.56836,-0.35743 -0.55021,0.0704 -1.08819,0.48537 -1.60402,0.11699 -1.78472,-0.6232 -3.55732,0.42437 -5.32957,0.59981 -0.55764,0.18698 -0.93013,-0.50351 -1.48828,-0.58203 -1.60367,-0.8221 -3.39883,-0.25902 -5.08505,-0.11919 -0.64944,0.0263 -1.27491,0.3739 -1.9005,0.0591 -2.81503,-0.64499 -5.85655,0.27834 -8.01445,2.15191 -2.32287,-2.14173 -5.73407,-2.84771 -8.76349,-2.05959 -0.84105,0.19557 -1.65793,0.49728 -2.42597,0.89162 -1.08099,-2.61433 -3.60981,-4.37852 -6.3265,-4.95281 -1.22978,-0.29048 -2.50015,-0.38491 -3.76139,-0.35579 z" />
    <text
       xml:space="preserve"
       style="font-size:24px;font-family:'Carter One';-inkscape-font-specification:'Carter One';text-align:center;text-anchor:middle;display:inline;fill:#ffffff;fill-opacity:1;stroke:#11d7f0;stroke-width:3;stroke-linecap:round;stroke-linejoin:round;stroke-dasharray:none;stroke-opacity:1;paint-order:markers stroke fill"
       x="209.25516"
       y="169.3167"
       id="text13"><tspan
         sodipodi:role="line"
         id="tspan13"
         x="209.25516"
         y="169.3167">Bear</tspan></text>
    <path
       id="path12"
       style="display:inline;fill:#13d5b8;fill-opacity:1;stroke:#9c20c3;stroke-width:3.69572;stroke-linecap:round;stroke-linejoin:round;stroke-dasharray:none;stroke-opacity:1;paint-order:fill markers stroke"
       inkscape:transform-center-x="-26.845935"
       inkscape:transform-center-y="-2.3456611"
       d="m 65.65952,132.9303 c -2.54856,0.13123 -4.7563,1.82155 -6.14846,3.87154 -2.20985,3.14724 -3.45586,6.82233 -4.79251,10.39275 -1.37455,3.7832 -2.55621,7.65949 -4.39633,11.25261 -0.22533,0.3802 -0.43861,0.82681 -0.81482,1.07215 -1.16276,0.38554 -2.40838,0.37813 -3.61864,0.46704 -0.4523,0.02 -1.0569,0.0374 -1.56769,0.0422 -4.13339,0.0429 -8.26467,-0.21912 -12.39851,-0.12146 -2.75727,0.0595 -5.56519,0.2463 -8.18995,1.15531 -2.08417,0.72993 -4.00861,2.23061 -4.78156,4.35471 -0.80485,2.16224 -0.33739,4.63152 0.87671,6.5475 1.41651,2.3711 3.52091,4.21806 5.58489,6.0106 3.77527,3.20081 7.90288,5.96623 11.60097,9.25975 0.73668,0.71255 1.5674,1.38993 2.05888,2.3013 1.3e-4,0.52253 -0.0962,1.04361 -0.18557,1.55771 -0.0445,0.22733 -0.13405,0.64286 -0.20416,0.93802 -0.72829,2.95174 -1.79992,5.78877 -2.77931,8.65139 -1.32065,3.80761 -2.70983,7.63857 -3.24081,11.65331 -0.27297,2.3228 -0.0899,4.87631 1.33801,6.82082 1.07719,1.53844 2.84489,2.53118 4.70907,2.70765 2.57341,0.27014 5.07122,-0.72276 7.32152,-1.8691 3.33979,-1.74823 6.42201,-3.93551 9.52384,-6.06602 2.5065,-1.71444 5.00825,-3.46896 7.74056,-4.81071 0.46199,-0.17218 0.98161,-0.47707 1.46701,-0.20613 1.5924,0.72766 3.03633,1.74147 4.4647,2.74542 4.47175,3.19893 8.63833,6.85659 13.45145,9.55415 2.10948,1.15375 4.49678,2.09395 6.9439,1.84056 2.01577,-0.21315 3.93123,-1.35692 4.96326,-3.11967 1.32845,-2.15692 1.36952,-4.81611 1.07394,-7.25774 -0.40681,-3.25364 -1.34676,-6.4084 -2.2442,-9.55255 -1.01768,-3.51814 -2.19023,-7.00766 -2.81628,-10.62399 -0.0736,-0.61929 -0.24363,-1.27546 -0.0636,-1.88683 1.21127,-1.4787 2.79483,-2.58824 4.30447,-3.73802 4.19134,-3.09434 8.67993,-5.80322 12.59421,-9.26055 1.45588,-1.3469 2.87324,-2.81217 3.77108,-4.60114 0.96791,-1.95347 1.16655,-4.37846 0.11015,-6.33956 -1.0421,-2.03694 -3.09676,-3.36284 -5.24467,-3.99578 -3.16697,-1.01732 -6.52282,-1.12485 -9.81686,-1.30991 -4.12977,-0.17764 -8.27816,-0.0924 -12.38994,-0.5709 -0.84262,-0.14468 -1.75507,-0.16287 -2.51072,-0.59803 -0.76508,-1.0244 -1.15334,-2.26658 -1.62881,-3.43927 -0.32635,-0.89582 -0.62902,-1.77461 -0.92816,-2.70845 -1.57211,-4.89643 -2.7733,-9.93805 -4.9342,-14.62389 -1.07464,-2.29941 -2.56066,-4.5846 -4.88076,-5.77852 -1.02145,-0.52086 -2.17577,-0.77263 -3.32167,-0.71844 z" />
  </g>
</svg>
